# xmcd
#
# Track frame offsets: 
#        150
#        9645
#        26407
#        39056
#        57374
#        69735
#        84547
#        91601
#        107755
#        118500
#        129407
#        139623
#        155290
#        163974
#
# Disc length: 2440 seconds
#
# Revision: 0
# Processed by: cddbd v1.5.1PL0 Copyright (c) Steve Scherf et al.
# Submitted via: ExactAudioCopy v0.95a5
#
DISCID=a909860e
DTITLE=Monogram - Bluegrass Music
DYEAR=1997
DGENRE=Bluegrass
TTITLE0=Lord, I Fell In Love With Thee
TTITLE1=It's Raining In My Heart
TTITLE2=Jesus Rose From The Dead
TTITLE3=When The Grass Grows Over Me
TTITLE4=Mary Ann
TTITLE5=In The Nettles
TTITLE6=The Judgment Day Is Near
TTITLE7=The Field Of Blooming Flowers
TTITLE8=Melody For Baby
TTITLE9=The Old Man In The Park
TTITLE10=The Sun Of My Lifetime
TTITLE11=The Meadows Where The Railroads Ends
TTITLE12=You Can Have Her
TTITLE13=You'll Reap What You Have Sown
EXTD=
EXTT0=
EXTT1=
EXTT2=
EXTT3=
EXTT4=
EXTT5=
EXTT6=
EXTT7=
EXTT8=
EXTT9=
EXTT10=
EXTT11=
EXTT12=
EXTT13=
PLAYORDER=
